<svg id="c7e0b178-975d-4c00-8571-1568e788644b" data-name="Layer 1" xmlns="http://www.w3.org/2000/svg" viewBox="0 0 24 24"><path d="m 14.42,0.2793 -2.16,0.01 V 8.5508 16.73 17 c -0.25,1.89 -2.16,3.339 -4.0901,2.869 -0.23,0 -0.7103,-0.148 -0.8203,-0.238 L 7.1992,19.5 c -0.61,-0.24 -1.2194,-0.97 -1.4394,-1.57 -1.2,-2.65 1.3298,-5.521 4.0898,-4.561 v -2.18 -2.1597 c -4.82,-0.48 -8.99905,3.3807 -8.5391,8.3107 0.38,3.83 3.3693,6.71 7.1993,6.82 4.0902,0.13 7.5892,-2.77 7.9292,-6.82 V 12.41 8.3301 h 0.131 c 1.55,1.09 3.491,1.6889 5.391,1.7889 h 0.238 V 8.0996 6.0391 H 22.07 c -0.46,0 -1.169,-0.1188 -1.759,-0.4688 -0.39,-0.16 -1.11,-0.4911 -1.35,-0.6211 -0.13,0 -0.461,-0.4701 -0.701,-0.5801 -1.07,-0.96 -1.821,-2.5182 -1.821,-3.98824 V 0.2793 Z"/></svg>