<svg id="b45d839c-9501-40cf-81cc-cd99dc537376" data-name="Layer 1" xmlns="http://www.w3.org/2000/svg" viewBox="0 0 24 24"><path d="m 20.232,2.5938 c -2.558,0.05 -5.335,2.0235 -6.464,4.7675 -0.1,0.249 -0.18,0.4472 -0.18,0.4942 0,0 0.289,0.049 0.654,0.049 2.794,0 3.063,2.1447 0.764,6.0687 -1.886,3.212 -3.683,1.748 -4.289,-3.489 C 10.117,5.2664 9.2893,3.352 7.5859,3.248 6.1884,3.158 4.8767,3.9343 1.7871,6.6523 1.2195,7.1533 0.59295,7.6897 0.40039,7.8457 l -0.35156,0.291 0.09375,0.2168 c 0.41374,0.93 0.84586,1.0599 2.19722,0.6699 1.5019,-0.44 1.8032,-0.1622 2.6211,2.4256 0.6252,1.973 0.6651,2.12 1.2168,4.256 0.7841,3.046 1.0162,3.799 1.4688,4.766 0.6054,1.297 1.5081,2.169 2.3825,2.299 3.208,0.459 8.261,-4.517 11.512,-11.375 2.717,-5.7165 2.653,-8.0737 -0.23,-8.6997 -0.352,-0.08 -0.713,-0.1076 -1.079,-0.1015 z"/></svg>