<svg id="71764f46-0983-4e2d-9b8a-e03c42f169c5" data-name="Layer 1" xmlns="http://www.w3.org/2000/svg" viewBox="0 0 24 24"><path d="M7.39,4.36V1.6A.38.38,0,0,0,7,1.23H.36A.37.37,0,0,0,0,1.6v7H4.93Z"/><path d="M10.78,10.17,15,7.71l1.39-2.39a.36.36,0,0,0-.1274-.4929L16.25,4.82,10.53,1.49a.37.37,0,0,0-.5.13L6.51,7.7Z"/><path d="M15.07,14.44H20l2.39-1.38a.35.35,0,0,0,.15-.47l-3.35-5.8a.36.36,0,0,0-.49-.13l-6.09,3.5Z"/><polygon points="4.42 9.55 0 9.55 0 14.45 1.59 14.45 4.42 9.55"/><polygon points="6.04 8.52 2.62 14.43 2.64 14.44 3.41 14.44 9.79 10.76 9.82 10.7 6.04 8.52"/><polygon points="11.78 10.66 5.22 14.44 13.97 14.44 11.78 10.66"/><circle cx="2.88" cy="19.47" r="0.8"/><path d="M23.72,15.34c-.0067,0-.0135,0-.02,0H.3a.29.29,0,0,0-.3.28q0,.01,0,.02v6.83a.29.29,0,0,0,.28.3c.0067,0,.0135,0,.02,0H23.7a.29.29,0,0,0,.3-.28q0-.01,0-.02V15.64A.29.29,0,0,0,23.72,15.34ZM2.88,21.17a1.7,1.7,0,1,1,1.7-1.7A1.7,1.7,0,0,1,2.88,21.17Z"/></svg>