<svg id="10ce2075-94c7-4f54-8c84-d7234e29d86d" data-name="Layer 1" xmlns="http://www.w3.org/2000/svg" viewBox="0 0 24 24"><path d="M0.09,12.69V4.44l7.14,4.12v2.75L2.47,8.56v5.5L0.09,12.69z M7.23,8.56l7.14-4.12v8.24l-4.76,2.75l-2.38-1.37l4.76-2.75V8.56l-4.76,2.75V8.56z M7.23,14.06v2.75l4.76,2.75v-2.75L7.23,14.06z M11.99,19.56l7.14-4.12V4.45l-2.38,1.37v8.24l-4.76,2.75V19.56z M21.62,11.18l-2.38,1.37l2.27,1.32l2.38-1.37L21.62,11.18z M19.13,15.44l-2.38,1.37l4.76,2.75v-2.75L19.13,15.44z M19.13,4.45l-2.38,1.37l4.76,2.75l2.38-1.37L19.13,4.45z M23.89,7.19l-2.38,1.37v10.99l2.38-1.37V7.19z"/></svg>